<?xml version="1.0" encoding="UTF-8"?>
<svg id="Layer_1" data-name="Layer 1" xmlns="http://www.w3.org/2000/svg" viewBox="0 0 163.52 44.86">
  <defs>
    <style>
      .cls-1 {
        fill: none;
      }

      .cls-2 {
        font-family: MyriadPro-Light, 'Myriad Pro';
        font-size: 7.57px;
        font-weight: 300;
      }

      .cls-3 {
        fill: #fff;
      }

      .cls-4 {
        letter-spacing: -.04em;
      }

      .cls-5 {
        letter-spacing: -.04em;
      }

      .cls-6 {
        letter-spacing: 0em;
      }

      .cls-7 {
        letter-spacing: .03em;
      }

      .cls-8 {
        letter-spacing: .01em;
      }
    </style>
  </defs>
  <text class="cls-2" transform="translate(49.02 31.42)"><tspan x="0" y="0">GOOD </tspan><tspan class="cls-8" x="21.44" y="0">E</tspan><tspan x="25.05" y="0">VE</tspan><tspan class="cls-6" x="32.43" y="0">R</tspan><tspan class="cls-7" x="36.21" y="0">Y</tspan><tspan x="40.28" y="0">WHERE ALL</tspan><tspan class="cls-4" x="75.01" y="0"> </tspan><tspan x="76.35" y="0">THE</tspan><tspan class="cls-5" x="88.17" y="0"> </tspan><tspan x="89.51" y="0">TIME </tspan></text>
  <g>
    <path d="M56.93,10.31c-.5-.29-1.11-.43-1.83-.43-.48,0-.96.1-1.43.3-.47.2-.9.51-1.27.91-.37.41-.67.91-.9,1.52-.23.61-.34,1.33-.34,2.15,0,.63.09,1.2.26,1.73s.42.99.74,1.38c.32.39.72.7,1.19.91s1.01.33,1.61.33c.14,0,.29,0,.46-.02s.34-.03.5-.05c.16-.02.31-.05.45-.09.14-.04.23-.08.3-.12.02-.13.03-.28.04-.47,0-.19,0-.4,0-.63,0-.84-.02-1.47-.05-1.87-.03-.4-.05-.67-.06-.82.1.02.24.04.41.05.17.02.42.02.74.02.38,0,.65,0,.84-.02.18-.02.33-.03.43-.05-.02.08-.04.22-.05.41-.02.19-.03.4-.04.65-.01.24-.02.51-.02.78,0,.28,0,.54,0,.79v.52c0,.26,0,.5,0,.73,0,.22.02.38.04.48-.69.2-1.38.35-2.09.47-.7.11-1.4.17-2.09.17-.9,0-1.72-.12-2.48-.35-.76-.23-1.41-.58-1.95-1.03-.55-.45-.97-1-1.28-1.64-.31-.64-.46-1.36-.46-2.16,0-.99.16-1.86.49-2.6.33-.74.78-1.36,1.36-1.86.58-.49,1.26-.87,2.05-1.12.79-.25,1.65-.38,2.56-.38.79,0,1.48.08,2.05.24.58.16,1.15.39,1.71.7-.08.27-.16.54-.24.8-.08.26-.14.53-.2.8h-.22c-.33-.47-.75-.85-1.25-1.13Z"/>
    <path d="M64.61,14.5c0-.77.14-1.49.43-2.17.29-.68.69-1.27,1.21-1.78.52-.51,1.15-.91,1.89-1.2.74-.29,1.56-.44,2.47-.44.83,0,1.61.11,2.33.34.72.23,1.34.57,1.88,1.03.53.46.95,1.04,1.26,1.74.31.7.46,1.52.46,2.46,0,.78-.15,1.51-.45,2.19-.3.68-.71,1.27-1.23,1.77-.53.51-1.15.9-1.88,1.18-.73.28-1.53.42-2.41.42-.82,0-1.6-.1-2.32-.3-.72-.2-1.35-.53-1.89-.98-.54-.45-.96-1.03-1.27-1.73s-.47-1.54-.47-2.52ZM73.97,14.16c0-.68-.08-1.28-.25-1.82-.17-.54-.4-.99-.7-1.37-.3-.38-.66-.66-1.08-.87-.42-.2-.88-.3-1.38-.3-.53,0-1.01.13-1.43.38-.42.26-.78.6-1.07,1.04-.29.44-.51.95-.66,1.54-.15.59-.23,1.22-.23,1.88,0,.83.09,1.54.27,2.11.18.57.42,1.03.72,1.38.3.35.65.6,1.05.76.4.16.81.23,1.25.23.47,0,.92-.1,1.34-.3.43-.2.8-.5,1.12-.91.32-.41.57-.92.77-1.55.19-.63.29-1.36.29-2.22Z"/>
    <path d="M82.51,13.44c0-.86-.01-1.63-.03-2.31-.02-.67-.05-1.35-.09-2.02.18.02.37.04.58.05.21.02.44.02.7.02.34,0,.73-.01,1.16-.04.43-.03.98-.04,1.67-.04.9,0,1.71.08,2.45.24.73.16,1.37.44,1.9.82.53.39.94.9,1.23,1.55.29.65.44,1.47.44,2.46,0,.86-.14,1.65-.43,2.34-.29.7-.68,1.29-1.17,1.79-.49.49-1.07.87-1.72,1.13-.65.26-1.35.39-2.09.39-.78,0-1.45,0-2-.02-.55-.01-1.03-.02-1.44-.02h-.7c-.21,0-.4.01-.58.03.04-.65.07-1.3.09-1.98.02-.67.03-1.44.03-2.31v-2.13ZM84.82,16.71v.94c0,.3,0,.58,0,.83,0,.25,0,.41,0,.48.16.01.34.02.56.03.22.01.49.02.81.02,1.18,0,2.11-.4,2.8-1.2.69-.8,1.03-2.02,1.03-3.64,0-.65-.09-1.22-.26-1.73-.17-.51-.41-.95-.73-1.3-.31-.36-.69-.64-1.13-.83-.44-.19-.93-.29-1.47-.29-.38,0-.68,0-.91.02-.23.02-.47.03-.71.05,0,.07,0,.23,0,.48,0,.25,0,.53,0,.84v5.3Z"/>
    <path d="M98.73,11.14c-.02-.67-.05-1.35-.09-2.02.18.02.37.04.58.05.21.02.44.02.7.02s.49,0,.7-.02c.21-.02.4-.03.58-.05-.04.68-.07,1.35-.09,2.02-.02.67-.03,1.44-.03,2.31v2.13c0,.86.01,1.63.03,2.31.02.67.05,1.33.09,1.98-.18-.02-.37-.03-.58-.03h-1.41c-.21,0-.4.01-.58.03.04-.65.07-1.3.09-1.98.02-.67.03-1.44.03-2.31v-2.13c0-.86-.01-1.63-.03-2.31Z"/>
    <path d="M110.66,9.88c-.48,0-.87.14-1.17.42-.3.28-.45.61-.45.98s.12.7.35.95c.23.24.53.47.88.66.35.2.73.39,1.14.57.41.18.79.41,1.14.67.35.27.65.59.88.97.23.38.35.87.35,1.46,0,.52-.1,1-.3,1.43-.2.43-.48.8-.84,1.11-.36.31-.8.54-1.3.7-.51.16-1.07.24-1.7.24-.56,0-1.07-.06-1.51-.18-.44-.12-.78-.27-1.01-.45.1-.36.19-.7.27-1,.07-.3.14-.63.19-.98h.3c.04.23.12.45.23.65.11.2.26.38.44.54.18.16.39.28.64.37.25.09.53.13.84.13.63,0,1.09-.16,1.38-.47s.45-.69.45-1.13c0-.4-.11-.72-.34-.97-.23-.25-.52-.47-.86-.66-.34-.19-.72-.38-1.13-.56-.41-.18-.78-.4-1.13-.66-.34-.26-.63-.58-.86-.96-.23-.38-.34-.87-.34-1.46,0-.54.1-1.02.29-1.44.19-.42.45-.77.77-1.05.32-.28.7-.49,1.12-.64.42-.15.87-.22,1.34-.22.56,0,1.05.07,1.48.2.42.14.78.32,1.09.56-.09.24-.17.47-.24.7-.07.22-.15.51-.26.85h-.23c-.33-.9-.96-1.34-1.89-1.34Z"/>
  </g>
  <g>
    <rect class="cls-3" x="6.57" y="6.57" width="31.72" height="31.72" transform="translate(-9.29 22.43) rotate(-45)"/>
    <g>
      <g>
        <g>
          <path d="M39.97,20.11l-7.32-7.32-1.46-1.46v10.23h10.23l-1.46-1.46ZM32.66,20.11v-5.83l5.72,5.83h-5.72Z"/>
          <polygon class="cls-1" points="32.66 20.11 38.38 20.11 32.66 14.28 32.66 20.11"/>
        </g>
        <path d="M22.47,2.56l-7.36,7.26v11.74h14.62v-11.74l-7.26-7.26ZM28.27,20.08h-11.7v-10.21l5.87-5.83,5.83,5.83v10.21Z"/>
        <polygon points="13.65 12.75 13.65 11.33 3.42 21.56 13.63 21.56 13.65 17.18 10.73 17.18 10.73 18.64 12.16 18.64 12.19 20.12 6.34 20.13 13.65 12.75"/>
        <g>
          <path d="M41.43,23.05h-10.23v10.23l1.46-1.46,7.32-7.32,1.46-1.46ZM38.38,24.5l-5.72,5.83v-5.83h5.72Z"/>
          <polygon class="cls-1" points="32.66 24.5 38.38 24.5 32.66 30.33 32.66 24.5"/>
        </g>
        <path d="M15.11,23.05v11.74l6.58,6.5v-1.46h0v-16.78h0s-6.58,0-6.58,0ZM20.23,38.37l-3.65-3.63v-10.21h3.65v13.84Z"/>
        <path d="M23.15,23.05h0v18.32l6.58-6.58v-11.74h-6.58ZM28.27,34.74l-3.65,3.65v-13.87h3.65v10.21Z"/>
        <polygon points="10.73 26.69 10.73 28.16 12.16 28.16 12.18 30.37 6.34 24.48 13.65 24.5 13.63 23.05 3.42 23.05 13.65 33.28 13.65 26.69 10.73 26.69"/>
      </g>
      <g>
        <rect x="16.22" y="16.08" width="12.41" height="12.41" transform="translate(-9.19 22.38) rotate(-45)"/>
        <g>
          <path class="cls-3" d="M22.83,28.64v-4.02h.55v2.68l4.74-4.74h-5.3v-6.63l3.34,3.34-.39.39-2.4-2.4v4.74h6.08l-6.63,6.63Z"/>
          <path class="cls-3" d="M21.08,20.71v6.52l-4.94-4.94,1.57-1.57h3.37M21.61,20.17h-4.12l-2.11,2.11,6.23,6.23v-8.33h0Z"/>
          <path class="cls-3" d="M21.08,17.28v1.15h-1.23l1.23-1.15M21.61,16.05l-3.11,2.92h3.11v-2.92h0Z"/>
        </g>
      </g>
    </g>
  </g>
  <g>
    <path d="M119.73,14.45c0-.88.14-1.66.44-2.34.29-.69.7-1.27,1.22-1.74.52-.47,1.15-.84,1.88-1.08.73-.25,1.52-.37,2.39-.37s1.68.12,2.41.37,1.35.61,1.88,1.08c.52.47.93,1.05,1.22,1.74.29.69.44,1.47.44,2.34s-.15,1.66-.44,2.34c-.29.69-.7,1.27-1.22,1.74-.52.47-1.15.83-1.88,1.06-.73.23-1.53.35-2.41.35s-1.66-.12-2.39-.35c-.73-.23-1.35-.59-1.88-1.06-.52-.47-.93-1.05-1.22-1.74-.29-.69-.44-1.47-.44-2.34ZM130.03,14.45c0-.86-.11-1.6-.33-2.22-.22-.62-.53-1.14-.93-1.55-.4-.41-.86-.71-1.39-.91-.53-.2-1.11-.29-1.73-.29s-1.18.1-1.72.29c-.53.2-1,.5-1.39.91-.4.41-.7.92-.93,1.55-.22.62-.33,1.36-.33,2.22s.11,1.6.33,2.22c.22.62.53,1.14.93,1.55.4.41.86.71,1.39.91.53.2,1.11.29,1.72.29s1.2-.1,1.73-.29c.53-.2,1-.5,1.39-.91.4-.41.7-.92.93-1.55.22-.62.33-1.36.33-2.22Z"/>
    <path d="M137.02,13.18c.74,1.38,1.52,2.8,2.33,4.25.11-.2.26-.48.46-.84.2-.37.43-.79.7-1.26.26-.47.55-.99.85-1.54.3-.55.61-1.11.92-1.68.31-.57.62-1.12.93-1.67.31-.55.59-1.06.85-1.53h.21c.12.99.22,1.95.32,2.87.1.92.2,1.83.31,2.72.11.89.21,1.77.32,2.65.11.87.22,1.74.35,2.59-.13-.02-.25-.03-.37-.03h-.74c-.12,0-.25.01-.37.03-.12-1.37-.23-2.7-.35-3.99-.12-1.29-.26-2.6-.43-3.95h-.03c-.73,1.3-1.44,2.59-2.14,3.88-.7,1.28-1.37,2.63-2,4.03h-.14c-.63-1.3-1.3-2.6-1.99-3.91-.69-1.3-1.38-2.64-2.08-4h-.03c-.07.64-.16,1.33-.25,2.08-.09.75-.17,1.49-.25,2.21-.07.73-.14,1.41-.19,2.06-.05.64-.08,1.17-.08,1.59-.17-.02-.35-.03-.55-.03s-.39.01-.55.03c.14-.84.28-1.72.43-2.65.15-.93.29-1.86.43-2.8.14-.94.26-1.86.38-2.78.12-.91.22-1.78.3-2.61h.27c.73,1.46,1.46,2.89,2.21,4.27Z"/>
    <path d="M152.9,15.73c-1.37-1.44-2.74-2.87-4.11-4.29-.01.29-.02.68-.03,1.16-.01.48-.02,1.14-.02,1.98,0,.22,0,.48,0,.8,0,.32.01.66.02,1.01,0,.35.01.71.02,1.07.01.36.02.7.03,1.01.01.31.02.58.03.81.01.23.02.39.03.47-.17-.02-.35-.03-.55-.03-.21,0-.41.01-.59.03.02-.1.04-.29.07-.57.03-.28.05-.61.07-1s.04-.81.07-1.26c.03-.45.05-.91.06-1.36.02-.45.03-.9.04-1.33.01-.43.02-.82.02-1.16,0-.99,0-1.84,0-2.55,0-.71-.02-1.24-.04-1.59h.25c.64.68,1.33,1.41,2.07,2.19.73.78,1.46,1.55,2.18,2.31.72.76,1.41,1.48,2.06,2.15.65.68,1.22,1.25,1.7,1.73v-2.1c0-1.08,0-2.14-.02-3.16-.02-1.03-.05-1.99-.1-2.9.21.05.39.08.54.08.13,0,.3-.03.51-.08-.02.23-.04.57-.07,1.02-.03.45-.05.94-.08,1.45-.03.52-.05,1.02-.07,1.52s-.03.89-.03,1.19v.93c0,.35,0,.72,0,1.1,0,.38.01.77.02,1.15,0,.39.01.75.02,1.08,0,.34,0,.63,0,.87v.51h-.22c-1.21-1.37-2.51-2.78-3.88-4.22Z"/>
    <path d="M160.14,11.11c-.03-.65-.06-1.32-.09-2,.14.02.27.04.4.05.13.02.25.02.38.02s.25,0,.38-.02c.13-.02.26-.03.4-.05-.03.68-.06,1.35-.09,2-.03.66-.04,1.32-.04,2v2.66c0,.68.01,1.35.04,2.01.03.66.06,1.31.09,1.95-.24-.02-.5-.03-.78-.03s-.53.01-.78.03c.03-.64.06-1.29.09-1.95.03-.66.04-1.33.04-2.01v-2.66c0-.68-.01-1.35-.04-2Z"/>
  </g>
</svg>